<svg height="530" viewBox="0 0 529 530" width="529" xmlns="http://www.w3.org/2000/svg">
	<title>
		LinkedIn
	</title>
	<path d="m451.082031 451.576416h-78.470764v-122.88858c0-29.303925-.523132-67.02713-40.812988-67.02713-40.870239 0-47.123352 31.927825-47.123352 64.893737v125.013794h-78.470825v-252.708679h75.33197v34.535309h1.054443c15.360657-26.26358 43.921814-41.949738 74.326599-40.821137 79.533386 0 94.197632 52.313843 94.197632 120.370911zm-333.419159-287.260376c-25.149719.004517-45.541229-20.3797-45.545746-45.529419-.004516-25.149719 20.3797-45.541199 45.529419-45.545715 25.14972-.004517 45.54123 20.379699 45.545746 45.529358.004517 25.14978-20.379699 45.54129-45.529419 45.545776m39.235413 287.260376h-78.552551v-252.716858h78.552551zm333.304718-451.207092h-451.288849c-21.328827-.240723-38.819763 16.844116-39.080078 38.172729v453.160706c.251404 21.338928 17.740936 38.440674 39.080078 38.213623h451.288849c21.381409.268188 38.939514-16.832581 39.235474-38.213623v-453.19336c-.304871-21.370788-17.864441-38.45465-39.235474-38.17279" fill="#6b7280" />
</svg>
